<svg xmlns="http://www.w3.org/2000/svg" viewBox="0 0 297.64 298.54" fill="#E8CFFF" aria-hidden="true">
  <path d="M290.5,149.53c0-.81-.02-1.62-.06-2.43C289.14,69.89,226.18,7.7,148.67,7.7h0s0,0,0,0c-.81,0-1.62.02-2.43.06C69.03,9.06,6.83,72.01,6.83,149.53c0,.81.02,1.62.06,2.43,1.3,77.21,64.25,139.4,141.77,139.4h0c.81,0,1.62-.02,2.43-.06,77.21-1.3,139.4-64.26,139.4-141.77ZM189.4,273c8.57-8.32,16.18-19.18,22.5-32,.2-.4-.37-.73-.61-.35-15.17,23.82-37.6,38.89-62.62,38.89-41.13,0-75.24-62.16-81.65-143.61-.03-.44-.68-.44-.71,0-.25,4.47-.38,9-.38,13.59,0,52.97,16.95,99.13,42.05,123.48-39.05-12.86-69.91-43.71-82.78-82.75,8.32,8.57,19.18,16.19,32,22.5.4.2.73-.37.35-.61-23.82-15.17-38.89-37.6-38.89-62.62,0-41.13,62.16-75.24,143.61-81.65.44-.03.44-.68,0-.71-4.47-.25-9-.38-13.59-.38-52.97,0-99.13,16.95-123.48,42.05,12.86-39.05,43.71-69.91,82.75-82.78-8.57,8.32-16.18,19.18-22.5,32-.2.4.37.73.61.35,15.17-23.81,37.58-38.88,62.59-38.89,0,0,.02,0,.03,0,0,0,.01,0,.02,0,41.98.02,76.65,64.8,82,148.75.47-6.13.72-12.38.72-18.73,0-52.97-16.95-99.13-42.05-123.48,39.05,12.86,69.91,43.71,82.78,82.75-8.32-8.57-19.18-16.18-32-22.5-.4-.2-.73.37-.35.61,23.82,15.17,38.89,37.6,38.89,62.62,0,41.13-62.16,75.24-143.61,81.65-.44.03-.44.68,0,.71,4.47.25,9,.38,13.59.38,52.97,0,99.13-16.95,123.48-42.05-12.86,39.05-43.71,69.91-82.75,82.78Z"></path>
  <path d="M121.65,194.6c-.83-2.73-1.25-6.6-1.25-11.5v-57.68l64.53,72.63c.13.15.33.24.53.24h3.97c.39,0,.71-.32.71-.71v-94.61c0-.39-.32-.71-.71-.71h-12.46c-.48,0-.83.47-.67.93l.4,1.21c.9,2.72,1.36,6.44,1.36,11.06v51.93l-58.35-64.91c-.13-.15-.33-.24-.53-.24h-12.09c-.48,0-.83.47-.67.93l.4,1.21c.99,2.98,1.49,6.7,1.49,11.06v80.53c0,.39.32.71.71.71h12.3c.48,0,.82-.46.68-.92l-.36-1.19Z"></path>
  <path d="M148.52,117.85h.27c.97-8.09,7.38-14.49,15.47-15.46v-.28c-8.09-.97-14.5-7.37-15.47-15.46h-.26c-.97,8.09-7.38,14.49-15.47,15.46v.27c8.09.97,14.49,7.38,15.46,15.47Z"></path>
</svg>