<svg xmlns="http://www.w3.org/2000/svg" viewBox="0 0 1200 900" fill="none" role="img" aria-hidden="true">
  <defs>
    <linearGradient id="aboutGel" x1="0%" y1="0%" x2="100%" y2="100%">
      <stop offset="0%" style="stop-color: rgba(255, 255, 255, 0.7)"></stop>
      <stop offset="45%" style="stop-color: rgba(200, 225, 255, 0.5)"></stop>
      <stop offset="100%" style="stop-color: rgba(120, 180, 230, 0.4)"></stop>
    </linearGradient>
    <linearGradient id="aboutRim" x1="0%" y1="0%" x2="0%" y2="100%">
      <stop offset="0%" style="stop-color: rgba(255, 255, 255, 0.75)"></stop>
      <stop offset="100%" style="stop-color: rgba(100, 150, 200, 0.25)"></stop>
    </linearGradient>
    <filter id="aboutSoft" x="-8%" y="-8%" width="116%" height="116%">
      <feGaussianBlur in="SourceGraphic" stdDeviation="1.2" result="b"></feGaussianBlur>
      <feMerge>
        <feMergeNode in="b"></feMergeNode>
        <feMergeNode in="SourceGraphic"></feMergeNode>
      </feMerge>
    </filter>
  </defs>
  
  <path d="M600 28 C480 195 120 195 88 405 C50 640 360 710 1020 812" stroke="rgba(40, 90, 140, 0.12)" stroke-width="90" stroke-linecap="round" fill="none" transform="translate(10, 16)"></path>
  
  <path d="M600 20 C480 195 100 200 80 400 C40 625 360 700 1000 800" stroke="url(#aboutGel)" stroke-width="78" stroke-linecap="round" fill="none" filter="url(#aboutSoft)"></path>
  
  <path d="M600 20 C480 195 100 200 80 400 C40 625 360 700 1000 800" stroke="url(#aboutRim)" stroke-width="14" stroke-linecap="round" fill="none" opacity="0.65" transform="translate(-5 -4)"></path>
  
  <g opacity="0.55">
    <rect x="520" y="88" width="88" height="56" rx="3" fill="rgba(255, 255, 255, 0.45)" transform="rotate(-6 564 116)"></rect>
    <rect x="300" y="180" width="88" height="56" rx="3" fill="rgba(255, 255, 255, 0.38)" transform="rotate(-18 344 208)"></rect>
    <rect x="120" y="300" width="88" height="56" rx="3" fill="rgba(255, 255, 255, 0.32)" transform="rotate(-25 164 328)"></rect>
    <rect x="200" y="480" width="88" height="56" rx="3" fill="rgba(255, 255, 255, 0.34)" transform="rotate(4 244 508)"></rect>
    <rect x="520" y="600" width="88" height="56" rx="3" fill="rgba(255, 255, 255, 0.3)" transform="rotate(10 564 628)"></rect>
    <rect x="820" y="680" width="88" height="56" rx="3" fill="rgba(255, 255, 255, 0.28)" transform="rotate(4 864 708)"></rect>
  </g>
  
  <g fill="rgba(15, 45, 80, 0.18)">
    <circle cx="515" cy="70" r="3.2"></circle>
    <circle cx="480" cy="120" r="3.2"></circle>
    <circle cx="420" cy="200" r="3.2"></circle>
    <circle cx="280" cy="250" r="3.2"></circle>
    <circle cx="150" cy="350" r="3.2"></circle>
    <circle cx="100" cy="450" r="3.2"></circle>
    <circle cx="200" cy="600" r="3.2"></circle>
    <circle cx="500" cy="700" r="3.2"></circle>
    <circle cx="800" cy="750" r="3.2"></circle>
    <circle cx="700" cy="100" r="3.2"></circle>
    <circle cx="640" cy="50" r="3.2"></circle>
  </g>
  
  <g opacity="0.4" fill="rgba(30, 70, 120, 0.35)">
    <circle cx="600" cy="48" r="28"></circle>
    <circle cx="600" cy="48" r="12" fill="rgba(200, 230, 255, 0.4)"></circle>
    <rect x="585" y="20" width="32" height="20" rx="4" transform="rotate(-8 601 30)"></rect>
  </g>
</svg>