<?xml version="1.0" encoding="UTF-8"?>
<svg id="_레이어_1" data-name="레이어_1" xmlns="http://www.w3.org/2000/svg" version="1.1" viewBox="0 0 1511.17 1560.19">
  
  <defs>
    
  </defs>
  <path class="st0" d="M1472.09,780.09c0-395.44-320.57-716.01-716.01-716.01S40.07,384.65,40.07,780.09s320.54,715.98,715.95,716.01c.02,0,.04,0,.05,0,.02,0,.03,0,.04,0,395.42-.02,715.97-320.58,715.97-716.01ZM961.7,1403.39c43.25-42.02,81.71-96.84,113.58-161.52,1-2.02-1.89-3.68-3.1-1.78-73.7,115.72-181.32,190.51-301.88,195.99-4.7.1-9.35.35-14.07.36-.05,0-.1,0-.15,0-.19,0-.38-.01-.57-.01-3.18,0-6.3-.19-9.47-.24-203.12-9.93-370.33-320.21-402.15-724.7-.18-2.22-3.45-2.21-3.57.01-1.26,22.58-1.91,45.46-1.91,68.6,0,267.25,85.42,500.27,212,623.28-197.01-64.98-352.66-220.64-417.63-417.66,42.02,43.25,96.84,81.7,161.52,113.58,2.02,1,3.68-1.89,1.78-3.1-115.71-73.69-190.5-181.3-195.99-301.85-.1-4.75-.36-9.47-.36-14.25,0-3.37.2-6.7.26-10.06,9.95-203.11,320.23-370.31,724.7-402.13,2.22-.17,2.21-3.45-.01-3.57-22.58-1.26-45.46-1.91-68.6-1.91-267.25,0-500.27,85.42-623.28,212,64.98-197.01,220.64-352.66,417.66-417.63-43.24,42.02-81.7,96.84-113.57,161.52-1,2.02,1.89,3.68,3.1,1.78,73.68-115.69,181.27-190.48,301.81-195.98,4.77-.1,9.5-.36,14.3-.36,3.42,0,6.79.21,10.19.26,207.37,10.29,377.28,333.65,403.85,750.65,2.38-30.95,3.63-62.51,3.63-94.57,0-267.25-85.42-500.27-212-623.28,197.01,64.98,352.66,220.64,417.63,417.66-42.02-43.25-96.84-81.7-161.52-113.58-2.02-1-3.68,1.89-1.78,3.1,115.71,73.69,190.5,181.3,195.98,301.85.1,4.75.36,9.47.36,14.25,0,3.37-.2,6.7-.25,10.06-9.95,203.11-320.23,370.31-724.7,402.13-2.22.17-2.21,3.45.01,3.57,22.58,1.26,45.46,1.91,68.6,1.91,267.25,0,500.27-85.42,623.28-212-64.98,197.01-220.65,352.66-417.66,417.63Z"></path>
  <path class="st0" d="M619.68,1007.6c-4.18-13.78-6.3-33.32-6.3-58.06v-291.21l325.78,366.65c.68.76,1.65,1.2,2.68,1.2h20.02c1.98,0,3.58-1.6,3.58-3.58v-477.6c0-1.98-1.6-3.58-3.58-3.58h-62.91c-2.44,0-4.17,2.39-3.4,4.71l2.04,6.12c4.57,13.74,6.88,32.53,6.88,55.85v262.16l-294.58-327.66c-.68-.76-1.65-1.19-2.66-1.19h-61.01c-2.44,0-4.17,2.39-3.4,4.71l2.04,6.13c5.01,15.03,7.55,33.82,7.55,55.84v406.54c0,1.98,1.6,3.58,3.58,3.58h62.08c2.4,0,4.12-2.32,3.43-4.62l-1.82-6Z"></path>
  <path class="st0" d="M755.37,620.19h1.38c4.89-40.84,37.27-73.15,78.1-78.05v-1.43c-40.83-4.9-73.21-37.21-78.1-78.04h-1.33c-4.89,40.83-37.27,73.15-78.1,78.04v1.38c40.83,4.89,73.15,37.27,78.05,78.1Z"></path>
</svg>